<?xml version="1.0" encoding="utf-8"?>
<!-- Generator: Adobe Illustrator 27.9.0, SVG Export Plug-In . SVG Version: 6.00 Build 0)  -->
<svg version="1.1" id="레이어_1" xmlns="http://www.w3.org/2000/svg" xmlns:xlink="http://www.w3.org/1999/xlink" x="0px"
	 y="0px" viewBox="0 0 1417.32 1417.32" style="enable-background:new 0 0 1417.32 1417.32;" xml:space="preserve">
<style type="text/css">
	.st0{fill:#FFF8E4;}
</style>
<g>
	<path class="st0" d="M708.88,28.11c-375.85,0-680.56,304.67-680.56,680.56c0,375.81,304.72,680.52,680.56,680.52
		c375.89,0,680.56-304.71,680.56-680.52C1389.45,332.78,1084.77,28.11,708.88,28.11z M1145.52,378.51h69.24v53.98h54.56v64.66
		h-54.56v69.69c0,7.83,1.65,13.32,5.03,16.54c3.42,3.18,9.44,4.74,18.02,4.74h31.51v65.16h-25.61c-33.69,0-58.52-7.38-74.39-22.11
		c-15.88-14.72-23.79-37.86-23.79-69.32V378.51z M961.1,432.49h63.76v33.11c7.01-11.46,16.04-19.88,27.05-25.16
		c11.01-5.28,36.25-7.96,53.4-7.96h8.33v66.81h-3.09c-25.12,0-54.44,5.56-65.49,16.7c-11.18,11.09-16.7,29.24-16.7,54.31v82.97
		H961.1V432.49z M944.32,763.64c3.96,3.14,7.26,7.01,9.81,11.55c2.6,4.66,4.25,9.81,5.03,15.75h-20.74
		c-0.16-3.38-0.95-6.35-2.27-8.99c-1.36-2.55-3.1-4.74-5.32-6.52c-2.22-1.77-4.82-3.01-7.75-4c-2.97-0.91-6.19-1.36-9.56-1.36
		c-4.91,0-9.24,0.95-13.2,2.76c-3.92,1.82-7.3,4.58-10.19,8.17c-2.84,3.71-5.03,8.25-6.6,13.69c-1.61,5.44-2.39,11.75-2.39,18.97
		c0,7.18,0.78,13.49,2.39,18.93c1.56,5.48,3.75,10.02,6.6,13.69c2.89,3.67,6.27,6.31,10.19,8.16c3.96,1.81,8.29,2.72,13.2,2.72
		c3.09,0,6.22-0.41,9.19-1.28c2.97-0.91,5.53-2.18,7.84-3.83c2.22-1.73,4.04-3.92,5.48-6.47c1.44-2.56,2.23-5.61,2.39-8.99h20.74
		c-0.78,5.94-2.47,11.21-5.03,15.79c-2.68,4.54-5.98,8.37-9.98,11.47c-3.96,3.05-8.53,5.32-13.77,6.89
		c-5.24,1.52-10.85,2.31-16.87,2.31c-7.92,0-15.13-1.28-21.65-3.96c-6.52-2.68-12.17-6.52-16.91-11.46
		c-4.7-5.07-8.29-11.22-10.85-18.72c-2.55-7.3-3.79-15.76-3.79-25.24c0-9.36,1.24-17.69,3.71-25.11
		c2.47-7.38,6.14-13.57,10.76-18.68c4.7-5.03,10.35-8.95,16.87-11.67c6.64-2.6,13.9-4,21.86-4c6.06,0,11.75,0.79,16.99,2.39
		C935.69,758.19,940.36,760.5,944.32,763.64z M732.47,460.37c20.91-21.49,47.47-32.21,79.68-32.21c22.27,0,42.35,5.69,60.37,17.07
		c17.94,11.42,31.47,26.93,40.49,46.72c3.47,7.55,5.98,15.92,7.47,25.12c1.52,9.23,2.35,23.83,2.35,43.88v92.34H853.8V547.67
		c0-16.25-3.63-28.54-10.72-36.78c-7.1-8.29-17.69-12.45-31.76-12.45c-11.67,0-21.03,4.04-28.29,12.12
		c-7.26,8.04-10.93,18.55-10.93,31.67c0,13.48,3.84,24.2,11.42,32.21c7.63,8,18.07,12,31.22,12c3.26,0,6.93-0.41,11.13-1.32
		c4.21-0.86,9.73-2.39,16.58-4.58v72.29c-5.69,1.16-11.01,2.06-16.12,2.64c-5.07,0.58-9.81,0.87-14.19,0.87
		c-32.21,0-58.77-10.76-79.68-32.25c-20.82-21.49-31.38-48.74-31.38-81.86C701.09,509.16,711.65,481.81,732.47,460.37z
		 M817.75,735.64v-21.86h20.04v21.86H817.75z M837.8,757.08v113.24h-20.04V757.08H837.8z M696.14,757.08h20v14.35
		c4.95-5.73,10.31-10.06,16-12.95c5.69-2.85,11.59-4.29,17.82-4.29c25.61,0,38.4,14.02,38.4,41.98v74.15h-20.29v-73.15
		c0-4.66-0.37-8.66-1.15-12.04c-0.74-3.3-1.98-5.94-3.76-8.12c-1.69-2.02-3.88-3.59-6.52-4.49c-2.68-0.95-5.86-1.4-9.56-1.4
		c-10.27,0-20.62,5.89-30.93,18.02v81.2h-20V757.08z M352.13,536.79c0-32.66,8.78-58.93,26.27-78.81
		c17.48-19.88,40.21-29.82,68.25-29.82c12.58,0,24.5,2.48,35.59,7.43c11.09,4.91,20.95,12.08,29.44,21.49
		c8.95-9.24,18.85-16.37,29.9-21.41c11.01-5.03,22.19-7.51,33.53-7.51c29.32,0,52.79,9.81,70.52,29.45
		c17.69,19.75,26.56,46.1,26.56,79.18v116.5H603.6V526.1c0-8.99-2.68-16.45-8.04-22.31c-5.4-5.86-12.21-8.83-20.45-8.83
		c-8.29,0-15.18,2.97-20.74,8.83c-5.53,5.86-8.21,13.32-8.21,22.31v127.18h-68.16V526.1c0-8.99-2.8-16.45-8.25-22.31
		c-5.53-5.86-12.5-8.83-20.91-8.83c-8.29,0-15.1,2.97-20.5,8.83c-5.32,5.86-8.04,13.32-8.04,22.31v127.18h-68.17V536.79z
		 M646.32,735.64v-21.86h20.04v21.86H646.32z M666.36,757.08v113.24h-20.04V757.08H666.36z M616.51,713.78v156.54h-20.08V713.78
		H616.51z M502.89,832.59c1.49,5.48,3.76,10.02,6.6,13.69c2.85,3.67,6.27,6.31,10.23,8.16c3.96,1.81,8.29,2.72,13.16,2.72
		c3.18,0,6.22-0.41,9.2-1.28c2.97-0.91,5.52-2.18,7.83-3.83c2.23-1.73,4.04-3.92,5.53-6.47c1.36-2.56,2.18-5.61,2.35-8.99h20.74
		c-0.82,5.94-2.51,11.21-5.07,15.79c-2.6,4.54-5.94,8.37-9.9,11.47c-4,3.05-8.62,5.32-13.81,6.89c-5.24,1.52-10.85,2.31-16.87,2.31
		c-7.88,0-15.13-1.28-21.65-3.96c-6.52-2.68-12.17-6.52-16.79-11.46c-4.78-5.07-8.41-11.22-10.97-18.72
		c-2.56-7.3-3.88-15.76-3.88-25.24c0-9.36,1.32-17.69,3.84-25.11c2.47-7.38,6.02-13.57,10.8-18.68c4.62-5.03,10.27-8.95,16.83-11.67
		c6.52-2.6,13.85-4,21.82-4c6.1,0,11.75,0.79,16.91,2.39c5.28,1.61,9.9,3.92,13.81,7.05c4.04,3.14,7.3,7.01,9.94,11.55
		c2.55,4.66,4.16,9.81,4.99,15.75h-20.74c-0.16-3.38-0.91-6.35-2.22-8.99c-1.4-2.55-3.18-4.74-5.4-6.52c-2.19-1.77-4.74-3.01-7.71-4
		c-2.97-0.91-6.18-1.36-9.56-1.36c-4.87,0-9.2,0.95-13.16,2.76c-3.96,1.82-7.38,4.58-10.23,8.17c-2.85,3.71-5.11,8.25-6.6,13.69
		c-1.57,5.44-2.35,11.75-2.35,18.97C500.55,820.84,501.33,827.15,502.89,832.59z M152.7,590.77h83.38c4.25,0,7.38-0.66,9.53-2.06
		c2.06-1.36,3.13-3.51,3.13-6.44c0-1.73-0.58-3.38-1.73-4.99c-1.16-1.57-2.64-2.85-4.41-3.71l-32.17-13.49
		c-18.31-7.71-31.87-16.99-40.7-27.87c-8.87-10.89-13.32-23.71-13.32-38.52c0-19.01,6.89-33.98,20.75-44.87
		c13.77-10.89,32.87-16.33,57.24-16.33h75.26v59.47h-74.4c-3.09,0-5.65,0.78-7.67,2.35c-2.02,1.61-3.01,3.63-3.01,6.14
		c0,1.57,0.58,3.22,1.69,4.91c1.2,1.61,2.56,2.77,4.21,3.34l30.68,13.03c21.16,8.87,36.5,18.68,46.02,29.49
		c9.52,10.84,14.27,23.88,14.27,39.13c0,10.56-2.35,20.25-7.09,28.95c-4.7,8.7-11.42,16.04-20.13,21.98
		c-6.68,4.21-14.35,7.3-23.17,9.16c-8.78,1.9-23.84,2.85-45.2,2.85H152.7V590.77z M709.75,1285.88
		c-282.86,0-517.71-205.08-564.15-474.65c0,0,16.41-57.04,71.01-20.29c37.28,238.86,243.84,421.62,493.13,421.62
		c249.53,0,456.14-182.4,493.05-421.62c0,0,56.21-36.74,71.02,20.29C1227.66,1081.09,992.77,1285.88,709.75,1285.88z"/>
</g>
</svg>
